<svg xmlns="http://www.w3.org/2000/svg" width="573.479" height="549.472" viewBox="0 0 573.479 549.472">
  <g id="Group_1" data-name="Group 1" transform="translate(70.739 7.103)">
    <rect id="Rectangle_4" data-name="Rectangle 4" width="146" height="146" transform="matrix(0.996, 0.087, -0.087, 0.996, -25.244, -7.103)" fill="#fff" opacity="0.82"/>
    <rect id="Rectangle_9" data-name="Rectangle 9" width="146" height="146" transform="matrix(0.996, 0.087, -0.087, 0.996, -41.629, 180.182)" fill="#fff"/>
    <rect id="Rectangle_12" data-name="Rectangle 12" width="146" height="146" transform="matrix(0.996, 0.087, -0.087, 0.996, -58.015, 367.466)" fill="#fff" opacity="0.93"/>
    <rect id="Rectangle_5" data-name="Rectangle 5" width="146" height="146" transform="matrix(0.996, 0.087, -0.087, 0.996, 357.295, 26.365)" fill="#fff" opacity="0.91"/>
    <rect id="Rectangle_7" data-name="Rectangle 7" width="146" height="146" transform="matrix(0.996, 0.087, -0.087, 0.996, 340.91, 213.649)" fill="#fff"/>
    <rect id="Rectangle_6" data-name="Rectangle 6" width="146" height="146" transform="matrix(0.996, 0.087, -0.087, 0.996, 166.025, 9.631)" fill="#fff"/>
    <rect id="Rectangle_8" data-name="Rectangle 8" width="146" height="146" transform="matrix(0.996, 0.087, -0.087, 0.996, 149.64, 196.915)" fill="#fff" opacity="0.71"/>
    <rect id="Rectangle_11" data-name="Rectangle 11" width="146" height="146" transform="matrix(0.996, 0.087, -0.087, 0.996, 133.255, 384.2)" fill="#fff"/>
  </g>
</svg>
