<svg xmlns="http://www.w3.org/2000/svg" width="41.018" height="41.018" viewBox="0 0 41.018 41.018">
  <path id="iconmonstr-gear-1" d="M41.018,23.271V17.747c-2.822-1-4.6-1.285-5.5-3.451v0c-.9-2.172.171-3.647,1.448-6.336L33.059,4.054C30.391,5.322,28.9,6.4,26.723,5.5h0c-2.169-.9-2.453-2.694-3.451-5.5H17.747c-.995,2.794-1.28,4.6-3.451,5.5h0c-2.172.9-3.644-.167-6.336-1.448L4.054,7.959c1.273,2.68,2.35,4.16,1.448,6.336S2.794,16.752,0,17.747v5.524c2.789.991,4.6,1.28,5.5,3.451.906,2.191-.195,3.7-1.448,6.336l3.905,3.907c2.67-1.27,4.16-2.35,6.336-1.448h0c2.171.9,2.454,2.7,3.451,5.5h5.524c.995-2.8,1.282-4.6,3.464-5.507h0c2.157-.9,3.623.173,6.32,1.454l3.905-3.907c-1.272-2.671-2.35-4.158-1.449-6.334s2.714-2.461,5.5-3.454ZM20.509,27.345a6.836,6.836,0,1,1,6.836-6.836A6.837,6.837,0,0,1,20.509,27.345Z" fill="#fff"/>
</svg>
